# AST/ASF file generated using VICON BodyLanguage
# -----------------------------------------------
:version 1.10
:name VICON
:units
  mass 1.0
  length 0.45
  angle deg
:documentation
   .ast/.asf automatically generated from VICON data using
   VICON BodyBuilder and BodyLanguage model FoxedUp or BRILLIANT.MOD
:root
   order TX TY TZ RX RY RZ
   axis XYZ
   position 0 0 0  
   orientation 0 0 0 
:bonedata
  begin
     id 1 
     name lhipjoint
     direction 0.578396 -0.714046 0.394458 
     length 2.21935 
     axis 0 0 0  XYZ
  end
  begin
     id 2 
     name lfemur
     direction 0.34202 -0.939693 0  
     length 6.39105  
     axis 0 0 20  XYZ
    dof rx ry rz
    limits (-160.0 20.0)
           (-70.0 70.0)
           (-60.0 70.0)
  end
  begin
     id 3 
     name ltibia
     direction 0.34202 -0.939693 0   
     length 6.99037   
     axis 0 0 20   XYZ
    dof rx
    limits (-10.0 170.0)
  end
  begin
     id 4 
     name lfoot
     direction 0.0582372 -0.160005 0.985397   
     length 2.06111   
     axis -90 7.62852e-016 20   XYZ
    dof rx rz
    limits (-45.0 90.0)
           (-70.0 20.0)
  end
  begin
     id 5 
     name ltoes
     direction 1.53556e-011 -4.21875e-011 1   
     length 1.04074   
     axis -90 7.62852e-016 20   XYZ
    dof rx
    limits (-90.0 20.0)
  end
  begin
     id 6 
     name rhipjoint
     direction -0.558179 -0.726269 0.40121   
     length 2.182  
     axis 0 0 0  XYZ 
  end
  begin
     id 7 
     name rfemur
     direction -0.34202 -0.939693 0   
     length 6.51172   
     axis 0 0 -20   XYZ
    dof rx ry rz
    limits (-160.0 20.0)
           (-70.0 70.0)
           (-70.0 60.0)
  end
  begin
     id 8 
     name rtibia
     direction -0.34202 -0.939693 0   
     length 7.02607   
     axis 0 0 -20   XYZ
    dof rx
    limits (-10.0 170.0)
 end
 begin
     id 9 
     name rfoot
     direction -0.0788856 -0.216737 0.973038   
     length 1.96734  
     axis -90 -7.62852e-016 -20   XYZ
    dof rx rz
    limits (-45.0 90.0)
           (-20.0 70.0)
  end
  begin
     id 10 
     name rtoes
     direction -1.53567e-011 -4.21783e-011 1   
     length 0.990825   
     axis -90 -7.62852e-016 -20   XYZ
    dof rx
    limits (-90.0 20.0)
  end
  begin
     id 11 
     name lowerback
     direction 0.00668177 0.999323 -0.0361741   
     length 1.7655   
     axis 0 0 0   XYZ
    dof rx ry rz
    limits (-20.0 45.0)
           (-30.0 30.0)
           (-30.0 30.0)
  end
  begin
     id 12 
     name upperback
     direction -0.00222086 0.99851 0.0545167   
     length 1.74912   
     axis 0 0 0   XYZ
    dof rx ry rz
    limits (-20.0 45.0)
           (-30.0 30.0)
           (-30.0 30.0)
  end
  begin
     id 13 
     name thorax
     direction -0.00733971 0.997496 0.0703443   
     length 1.75715   
     axis 0 0 0   XYZ
    dof rx ry rz
    limits (-20.0 45.0)
           (-30.0 30.0)
           (-30.0 30.0)
  end
  begin
     id 14 
     name lowerneck
     direction 0.0279797 0.994795 0.0979765   
     length 1.46939   
     axis 0 0 0   XYZ
    dof rx ry rz
    limits (-20.0 45.0)
           (-30.0 30.0)
           (-30.0 30.0)
  end
  begin
     id 15 
     name upperneck
     direction 0.00339187 0.976776 -0.214238   
     length 1.48018   
     axis 0 0 0   XYZ
    dof rx ry rz
    limits (-20.0 45.0)
           (-30.0 30.0)
           (-30.0 30.0)
  end
  begin
     id 16
     name head
     direction -0.00263506 0.996603 -0.0823096  
     length 1.4976  
     axis 0 0 0   XYZ
    dof rx ry rz
    limits (-20.0 45.0)
           (-30.0 30.0)
           (-30.0 30.0)
  end
  begin
     id 17 
     name lclavicle
     direction 0.894044 0.44508 -0.0508781  
     length 3.03024  
     axis 0 0 0   XYZ
    dof ry rz
    limits (-20.0 10.0)
           (0.0 20.0)
  end
  begin
     id 18 
     name lhumerus
     direction 1 -4.48961e-011 -2.39475e-018   
     length 4.4661   
     axis 180 -30 -90   XYZ
    dof rx ry rz
    limits (-60.0 90.0)
           (-90.0 90.0)
           (-90.0 90.0)
  end
  begin
     id 19
     name lradius
     direction 1 -4.48961e-011 9.29328e-028   
     length 3.41414   
     axis 180 -30 -90   XYZ
    dof rx
    limits (-10.0 170.0)
  end
  begin
     id 20
     name lwrist
     direction 1 -4.48985e-011 1.53461e-026   
     length 1.70707   
     axis -1.09697e-014 90 90   XYZ
    dof ry
    limits (-180.0 0.0)
 end
  begin
     id 21 
     name lhand
     direction 1 -4.48966e-011 3.06923e-026   
     length 0.328298   
     axis -1.95843e-014 90 90   XYZ
    dof rx rz
    limits (-90.0 90.0)
           (-45.0 45.0)
  end
  begin
     id 22 
     name lfingers
     direction 1 -4.48893e-011 6.13845e-026   
     length 0.264682   
     axis -3.91686e-014 90 90   XYZ
    dof rx
    limits (0.0 90.0)
  end
  begin
     id 23
     name lthumb
     direction 0.707107 -6.34876e-011 0.707107   
     length 0.380032   
     axis -90 45 2.85299e-015   XYZ
    dof rx rz
    limits (-45.0 45.0)
           (-45.0 45.0)
  end
  begin
     id 24 
     name rclavicle
     direction -0.936955 0.347862 -0.0332887   
     length 3.26927  
     axis 0 0 0   XYZ 
    dof ry rz
    limits (-10.0 20.0)
           (-20.0 0.0)
  end
  begin
     id 25 
     name rhumerus
     direction -1 -4.4896e-011 1.78637e-018  
     length 4.40431   
     axis 180 30 90   XYZ
    dof rx ry rz
    limits (-90.0 60.0)
           (-90.0 90.0)
           (-90.0 90.0)
  end
  begin
     id 26 
     name rradius
     direction -1 -4.48955e-011 9.34036e-027   
     length 3.04688   
     axis 180 30 90   XYZ
    dof rx
    limits (-10.0 170.0)
  end
  begin
     id 27 
     name rwrist
     direction -1 -4.49011e-011 1.53461e-026   
     length 1.52344   
     axis -1.09697e-014 -90 -90   XYZ
    dof ry
    limits (-180.0 0.0)
  end
  begin
     id 28
     name rhand
     direction -1 -4.48834e-011 3.06923e-026   
     length 0.500489   
     axis -1.95843e-014 -90 -90   XYZ
    dof rx rz
    limits (-90.0 90.0)
           (-45.0 45.0)
  end
  begin
     id 29
     name rfingers
     direction -1 -4.48967e-011 6.13845e-026   
     length 0.403507   
     axis -3.91686e-014 -90 -90   XYZ
    dof rx
    limits (0.0 90.0)
  end
  begin
     id 30
     name rthumb
     direction -0.707107 -6.34826e-011 0.707107   
     length 0.579358   
     axis -90 -45 -2.85299e-015   XYZ
    dof rx rz
    limits (-45.0 45.0)
           (-45.0 45.0)
  end
:hierarchy
  begin
    root lhipjoint rhipjoint lowerback
    lhipjoint lfemur
    lfemur ltibia
    ltibia lfoot
    lfoot ltoes
    rhipjoint rfemur
    rfemur rtibia
    rtibia rfoot
    rfoot rtoes
    lowerback upperback
    upperback thorax
    thorax lowerneck lclavicle rclavicle
    lowerneck upperneck
    upperneck head
    lclavicle lhumerus
    lhumerus lradius
    lradius lwrist
    lwrist lhand lthumb
    lhand lfingers
    rclavicle rhumerus
    rhumerus rradius
    rradius rwrist
    rwrist rhand rthumb
    rhand rfingers
  end

#!OML:ASF H:\IndianDance\Patient Classification 1\Patient 1\Session 1\dancer.ASF
:FULLY-SPECIFIED
:DEGREES
1503
root 6.93346 14.8191 8.63037 -161.903 10.6592 -171.97
lowerback 4.41072 0.282618 -1.17914
upperback -5.18678 0.337401 -5.56612
thorax -7.91606 0.231249 -5.30149
lowerneck -19.3069 2.42115 5.83671
upperneck 37.8414 1.97751 9.55945
head 17.1151 4.40797 4.10515
rclavicle -3.81667e-014 -3.18055e-014
rhumerus 63.1472 -26.2517 -27.9088
rradius 59.5274
rwrist -81.3313
rhand -33.0908 -12.721
rfingers 7.12502
rthumb -6.30191 -42.6072
lclavicle -3.81667e-014 -3.18055e-014
lhumerus 35.8212 -43.4446 22.7547
lradius 123.455
lwrist 75.2459
lhand -29.9346 32.5894
lfingers 7.12502
lthumb -3.25433 62.5443
rfemur -50.4747 -22.1653 48.7702
rtibia 65.9801
rfoot -3.88745 7.40101
rtoes 19.8942
lfemur -13.7477 19.7813 -35.6985
ltibia 33.4157
lfoot -7.3951 -7.75421
ltoes 6.69192
1504
root 6.9356 14.8221 8.63152 -161.903 10.3077 -171.869
lowerback 4.43269 0.229718 -0.960351
upperback -5.19419 0.270224 -5.19994
thorax -7.9397 0.182263 -5.02229
lowerneck -19.3686 2.46284 5.75303
upperneck 37.504 2.05186 9.23829
head 16.942 4.32679 3.94131
rclavicle 2.78299e-015 2.8625e-014
rhumerus 63.3324 -25.9908 -27.7665
rradius 59.63
rwrist -81.3714
rhand -33.1465 -12.789
rfingers 7.12502
rthumb -6.35562 -42.6736
lclavicle 2.78299e-015 2.8625e-014
lhumerus 36.9602 -41.5361 22.5887
lradius 122.719
lwrist 75.5503
lhand -29.6993 32.8547
lfingers 7.12502
lthumb -3.02711 62.813
rfemur -51.5413 -21.4723 48.3265
rtibia 67.3609
rfoot -2.61303 7.55901
rtoes 20.6859
lfemur -12.8004 18.2144 -35.8485
ltibia 31.8026
lfoot -7.82025 -5.7365
ltoes 5.9751
1505
root 6.93713 14.8205 8.63067 -161.901 10.0285 -171.69
lowerback 4.4565 0.203648 -0.712807
upperback -5.21816 0.243439 -4.81215
thorax -7.97887 0.152078 -4.74226
lowerneck -19.3955 2.51033 5.70295
upperneck 37.1085 2.1252 8.90252
head 16.7339 4.24436 3.75986
rclavicle -2.5842e-014 -1.90833e-014
rhumerus 63.4788 -25.704 -27.6534
rradius 59.7997
rwrist -81.3912
rhand -33.1893 -12.8314
rfingers 7.12502
rthumb -6.39698 -42.7148
lclavicle -2.5842e-014 -1.90833e-014
lhumerus 38.0732 -39.6563 22.4081
lradius 121.915
lwrist 75.8404
lhand -29.5514 33.111
lfingers 7.12502
lthumb -2.88421 63.0713
rfemur -52.4568 -20.5424 47.7926
rtibia 68.6305
rfoot -1.78382 7.48496
rtoes 21.1749
lfemur -11.9193 16.7742 -35.9158
ltibia 30.3661
lfoot -8.16554 -3.77148
ltoes 5.01998
1506
root 6.93837 14.8146 8.62706 -161.904 9.83185 -171.44
lowerback 4.48464 0.205338 -0.453061
upperback -5.26049 0.258259 -4.40729
thorax -8.03733 0.142654 -4.4572
lowerneck -19.3846 2.5603 5.67495
upperneck 36.662 2.1953 8.56501
head 16.4947 4.16115 3.5701
rclavicle -1.90833e-014 3.18055e-014
rhumerus 63.5895 -25.3821 -27.5813
rradius 60.0256
rwrist -81.3961
rhand -33.219 -12.8247
rfingers 7.12502
rthumb -6.42564 -42.7072
lclavicle -1.90833e-014 3.18055e-014
lhumerus 39.1612 -37.8175 22.2075
lradius 121.046
lwrist 76.1134
lhand -29.4869 33.4041
lfingers 7.12502
lthumb -2.8219 63.3651
rfemur -53.1915 -19.4048 47.1758
rtibia 69.7527
rfoot -1.52595 7.02697
rtoes 21.0344
lfemur -11.1066 15.5163 -35.9053
ltibia 29.1061
lfoot -8.44622 -1.91677
ltoes 3.96187
1507
root 6.93952 14.8048 8.62004 -161.918 9.71345 -171.142
lowerback 4.51861 0.229411 -0.200981
upperback -5.32068 0.307137 -3.99464
thorax -8.11651 0.15182 -4.165
lowerneck -19.3384 2.61034 5.67125
upperneck 36.1734 2.25708 8.23456
head 16.2313 4.07786 3.37669
rclavicle 1.78906e-014 -3.18055e-014
rhumerus 63.6546 -25.0215 -27.5542
rradius 60.3138
rwrist -81.3908
rhand -33.2448 -12.769
rfingers 7.12502
rthumb -6.45051 -42.6507
lclavicle 1.78906e-014 -3.18055e-014
lhumerus 40.2294 -36.0261 21.974
lradius 120.116
lwrist 76.3645
lhand -29.462 33.7096
lfingers 7.12502
lthumb -2.79794 63.671
rfemur -53.7459 -18.1107 46.4849
rtibia 70.6927
rfoot -1.85264 6.09579
rtoes 20.2101
lfemur -10.3522 14.4707 -35.8331
ltibia 28.0071
lfoot -8.67707 -0.21796
ltoes 3.09241
1508
root 6.94057 14.7909 8.60911 -161.953 9.66516 -170.829
lowerback 4.56354 0.27234 0.01812
upperback -5.39966 0.384024 -3.587
thorax -8.22139 0.178274 -3.86449
lowerneck -19.2563 2.65372 5.69113
upperneck 35.6503 2.30261 7.91226
head 15.9485 3.99213 3.1802
rclavicle 7.55382e-015 4.13472e-014
rhumerus 63.669 -24.6248 -27.5565
rradius 60.6557
rwrist -81.3913
rhand -33.2839 -12.6694
rfingers 7.12502
rthumb -6.48828 -42.55
lclavicle 7.55382e-015 4.13472e-014
lhumerus 41.2932 -34.2899 21.7087
lradius 119.119
lwrist 76.5988
lhand -29.4419 34.0806
lfingers 7.12502
lthumb -2.77849 64.0423
rfemur -54.1273 -16.7224 45.7229
rtibia 71.4147
rfoot -2.71017 4.69049
rtoes 18.6725
lfemur -9.64105 13.6535 -35.7269
ltibia 27.0576
lfoot -8.88311 1.27517
ltoes 2.42559
1509
root 6.94234 14.7736 8.59366 -162.016 9.67436 -170.529
lowerback 4.6177 0.327303 0.1725
upperback -5.49162 0.477314 -3.1901
thorax -8.34602 0.218384 -3.54222
lowerneck -19.1516 2.6884 5.71709
upperneck 35.1035 2.33106 7.60882
head 15.6551 3.90326 2.98998
rclavicle -2.22639e-014 -6.67916e-014
rhumerus 63.6172 -24.1938 -27.5817
rradius 61.0662
rwrist -81.3975
rhand -33.3591 -12.5376
rfingers 7.12502
rthumb -6.56093 -42.416
lclavicle -2.22639e-014 -6.67916e-014
lhumerus 42.345 -32.6035 21.4074
lradius 118.072
lwrist 76.8401
lhand -29.4023 34.4792
lfingers 7.12502
lthumb -2.74022 64.4413
rfemur -54.3401 -15.295 44.8892
rtibia 71.8765
rfoot -3.96668 2.94625
rtoes 16.7665
lfemur -8.95989 13.0709 -35.6041
ltibia 26.2431
lfoot -9.07635 2.5257
ltoes 1.67486
1510
root 6.94395 14.754 8.57339 -162.103 9.71586 -170.277
lowerback 4.67556 0.381988 0.255042
upperback -5.5964 0.569501 -2.81555
thorax -8.48858 0.264001 -3.2044
lowerneck -19.0316 2.71297 5.73725
upperneck 34.5402 2.34289 7.32921
head 15.356 3.8108 2.8111
rclavicle -1.31198e-014 2.22639e-014
rhumerus 63.512 -23.7299 -27.6274
rradius 61.5354
rwrist -81.4036
rhand -33.4539 -12.369
rfingers 7.12502
rthumb -6.65239 -42.2445
lclavicle -1.31198e-014 2.22639e-014
lhumerus 43.3857 -30.9641 21.079
lradius 116.976
lwrist 77.1043
lhand -29.3198 34.926
lfingers 7.12502
lthumb -2.66056 64.8891
rfemur -54.4156 -13.8934 43.9792
rtibia 72.0323
rfoot -5.45394 1.13589
rtoes 14.7744
lfemur -8.30632 12.6611 -35.4873
ltibia 25.5495
lfoot -9.26225 3.48828
ltoes 1.15152
1511
root 6.94516 14.7334 8.54786 -162.213 9.76199 -170.1
lowerback 4.72535 0.423866 0.257401
upperback -5.71146 0.642255 -2.47037
thorax -8.6406 0.306729 -2.85117
lowerneck -18.9048 2.72846 5.74116
upperneck 33.9672 2.34234 7.07436
head 15.0559 3.71538 2.64703
rclavicle -4.19436e-014 1.59028e-015
rhumerus 63.357 -23.2342 -27.6892
rradius 62.0705
rwrist -81.409
rhand -33.5703 -12.1764
rfingers 7.12502
rthumb -6.76475 -42.0484
lclavicle -4.19436e-014 1.59028e-015
lhumerus 44.3987 -29.3717 20.7262
lradius 115.846
lwrist 77.4008
lhand -29.3017 35.3971
lfingers 7.12502
lthumb -2.64306 65.3604
rfemur -54.3743 -12.578 42.9932
rtibia 71.8358
rfoot -7.02096 -0.39635
rtoes 12.6178
lfemur -7.67754 12.3716 -35.3938
ltibia 24.9628
lfoot -9.44231 4.14345
ltoes 0.980777
1512
root 6.9454 14.7129 8.51665 -162.333 9.78019 -170.001
lowerback 4.74998 0.441522 0.198615
upperback -5.83415 0.680998 -2.15505
thorax -8.78946 0.338346 -2.49135
lowerneck -18.7738 2.73585 5.71544
upperneck 33.3823 2.33303 6.84891
head 14.7541 3.61706 2.50208
rclavicle -6.55989e-015 2.22639e-014
rhumerus 63.1671 -22.7059 -27.77
rradius 62.6653
rwrist -81.3979
rhand -33.7026 -11.9587
rfingers 7.12502
rthumb -6.89251 -41.8265
lclavicle -6.55989e-015 2.22639e-014
lhumerus 45.3698 -27.8152 20.3611
lradius 114.7
lwrist 77.7267
lhand -29.302 35.8831
lfingers 7.12502
lthumb -2.64341 65.8465
rfemur -54.2372 -11.4045 41.9553
rtibia 71.25
rfoot -8.55784 -1.33659
rtoes 10.3591
lfemur -7.08681 12.1504 -35.3239
ltibia 24.4896
lfoot -9.61385 4.50525
ltoes 1.09351
1513
root 6.94438 14.6936 8.47936 -162.45 9.74359 -169.975
lowerback 4.72812 0.427442 0.0971444
upperback -5.96275 0.676839 -1.86656
thorax -8.92014 0.353547 -2.13033
lowerneck -18.6344 2.73416 5.66733
upperneck 32.7819 2.31597 6.63649
head 14.4482 3.51438 2.3676
rclavicle 2.127e-014 1.59028e-014
rhumerus 62.9398 -22.1436 -27.8652
rradius 63.3268
rwrist -81.3725
rhand -33.8485 -11.7251
rfingers 7.12502
rthumb -7.03331 -41.5883
lclavicle 2.127e-014 1.59028e-014
lhumerus 46.2926 -26.3049 19.9942
lradius 113.54
lwrist 78.0566
lhand -29.312 36.377
lfingers 7.12502
lthumb -2.65302 66.3402
rfemur -54.0188 -10.4167 40.9024
rtibia 70.2604
rfoot -9.99709 -1.41934
rtoes 8.3637
lfemur -6.55644 11.9833 -35.2739
ltibia 24.1481
lfoot -9.75922 4.61129
ltoes 1.22785
1514
root 6.94148 14.676 8.43579 -162.552 9.62469 -170.002
lowerback 4.6399 0.373377 -0.010086
upperback -6.09565 0.622004 -1.59799
thorax -9.01808 0.346317 -1.78008
lowerneck -18.4945 2.72642 5.59529
upperneck 32.1729 2.29807 6.42827
head 14.1431 3.40909 2.24197
rclavicle -2.98177e-015 1.11319e-014
rhumerus 62.6924 -21.5428 -27.9729
rradius 64.0474
rwrist -81.3258
rhand -34.0018 -11.4776
rfingers 7.12502
rthumb -7.18134 -41.3358
lclavicle -2.98177e-015 1.11319e-014
lhumerus 47.146 -24.8231 19.6301
lradius 112.386
lwrist 78.3711
lhand -29.3288 36.829
lfingers 7.12502
lthumb -2.66925 66.7921
rfemur -53.7256 -9.66664 39.9031
rtibia 68.8886
rfoot -11.3509 -0.678055
rtoes 6.50733
lfemur -6.11675 11.844 -35.2212
ltibia 23.9804
lfoot -9.90004 4.4583
ltoes 1.78249
1515
root 6.93644 14.6589 8.38631 -162.621 9.40918 -170.056
lowerback 4.46567 0.281635 -0.090355
upperback -6.2323 0.522887 -1.3433
thorax -9.06949 0.317694 -1.45326
lowerneck -18.34 2.7097 5.52504
upperneck 31.5413 2.27466 6.19935
head 13.8305 3.29804 2.10865
rclavicle -1.5704e-014 2.8625e-014
rhumerus 62.4151 -20.907 -28.0798
rradius 64.8305
rwrist -81.2671
rhand -34.1616 -11.2253
rfingers 7.12502
rthumb -7.33556 -41.0782
lclavicle -1.5704e-014 2.8625e-014
lhumerus 47.9367 -23.3749 19.2831
lradius 111.238
lwrist 78.6371
lhand -29.3104 37.1862
lfingers 7.12502
lthumb -2.65153 67.1494
rfemur -53.3637 -9.17398 39.0167
rtibia 67.2208
rfoot -12.5856 0.687541
rtoes 5.1667
lfemur -5.81399 11.767 -35.1518
ltibia 24.0411
lfoot -10.0205 4.09559
ltoes 2.28567
1516
root 6.92891 14.6416 8.33155 -162.654 9.09343 -170.119
lowerback 4.20343 0.151679 -0.117493
upperback -6.3749 0.381272 -1.09781
thorax -9.07471 0.26671 -1.16052
lowerneck -18.1657 2.68454 5.46592
upperneck 30.8937 2.24838 5.93972
head 13.5127 3.18283 1.9633
rclavicle 1.92821e-014 4.77083e-014
rhumerus 62.1449 -20.2296 -28.1989
rradius 65.6236
rwrist -81.1963
rhand -34.333 -10.9841
rfingers 7.12502
rthumb -7.50099 -40.8311
lclavicle 1.92821e-014 4.77083e-014
lhumerus 48.6556 -21.9551 18.9507
lradius 110.096
lwrist 78.8294
lhand -29.2323 37.4266
lfingers 7.12502
lthumb -2.57603 67.3908
rfemur -52.9294 -8.953 38.2979
rtibia 65.3869
rfoot -13.6489 2.42575
rtoes 4.84426
lfemur -5.68506 11.7912 -35.0459
ltibia 24.3896
lfoot -10.1243 3.52627
ltoes 2.63693
1517
root 6.91874 14.6244 8.2723 -162.651 8.68209 -170.163
lowerback 3.85979 -0.003852 -0.0712416
upperback -6.52195 0.215833 -0.849217
thorax -9.03545 0.201128 -0.903394
lowerneck -17.9781 2.64518 5.40419
upperneck 30.2345 2.21575 5.64363
head 13.1928 3.05985 1.80631
rclavicle 1.8487e-014 4.45278e-014
rhumerus 61.8585 -19.5195 -28.2909
rradius 66.436
rwrist -81.124
rhand -34.5156 -10.7673
rfingers 7.12502
rthumb -7.67725 -40.6079
lclavicle 1.8487e-014 4.45278e-014
lhumerus 49.325 -20.5778 18.6516
lradius 108.945
lwrist 78.9083
lhand -29.0955 37.5081
lfingers 7.12502
lthumb -2.44394 67.4739
rfemur -52.4288 -8.99625 37.789
rtibia 63.5394
rfoot -14.5227 4.25102
rtoes 5.71317
lfemur -5.75301 11.9293 -34.876
ltibia 25.0724
lfoot -10.2111 2.75989
ltoes 2.85425
